<?xml version="1.0" encoding="utf-8"?>
<!-- Generator: Adobe Illustrator 24.0.1, SVG Export Plug-In . SVG Version: 6.00 Build 0)  -->
<svg version="1.1" xmlns="http://www.w3.org/2000/svg" xmlns:xlink="http://www.w3.org/1999/xlink" x="0px" y="0px"
	 viewBox="0 0 510.13 122.37" style="enable-background:new 0 0 510.13 122.37;" xml:space="preserve">
<style type="text/css">
	.st0{fill:#111111;}
	.st1{fill:#F7F7F7;}
	.st2{fill:#503290;}
	.st3{fill:#EDEEF2;}
	.st4{fill:#21183A;}
	.st5{fill:url(#SVGID_1_);}
	.st6{fill:url(#SVGID_2_);}
	.st7{opacity:0.5;fill:#481787;}
	.st8{fill:url(#SVGID_3_);}
	.st9{fill:url(#SVGID_4_);}
	.st10{fill:url(#SVGID_5_);}
	.st11{fill:url(#SVGID_6_);}
	.st12{fill:url(#SVGID_7_);}
	.st13{fill:#E294FF;}
	.st14{fill:#7A67EB;}
	.st15{fill:#BDBDDB;}
	.st16{fill:#8285A0;}
	.st17{fill:#3B415B;}
	.st18{fill:url(#SVGID_8_);}
	.st19{fill:url(#SVGID_9_);}
	.st20{fill:url(#SVGID_10_);}
	.st21{fill:url(#SVGID_11_);}
	.st22{fill:none;stroke:#A6A8AB;stroke-width:0.2235;stroke-miterlimit:10;}
	.st23{fill:none;stroke:#A6A8AB;stroke-width:0.231;stroke-miterlimit:10;}
	.st24{fill:none;stroke:#A6A8AB;stroke-width:0.2957;stroke-miterlimit:10;}
	.st25{fill:url(#SVGID_12_);}
	.st26{fill:url(#SVGID_13_);}
	.st27{fill:url(#SVGID_14_);}
	.st28{fill:none;stroke:#D0D2D3;stroke-width:0.5;stroke-miterlimit:10;}
	.st29{fill:url(#SVGID_15_);}
	.st30{fill:url(#SVGID_16_);}
	.st31{fill:url(#SVGID_17_);}
	.st32{fill:url(#SVGID_18_);}
	.st33{fill:url(#SVGID_19_);}
	.st34{fill:url(#SVGID_20_);}
	.st35{fill:url(#SVGID_21_);}
	.st36{fill:url(#SVGID_22_);}
	.st37{fill:url(#SVGID_23_);}
	.st38{fill:url(#SVGID_24_);}
	.st39{fill:url(#SVGID_25_);}
	.st40{fill:url(#SVGID_26_);}
	.st41{fill:url(#SVGID_27_);}
	.st42{fill:url(#SVGID_28_);}
	.st43{fill:url(#SVGID_29_);}
	.st44{fill:url(#SVGID_30_);}
	.st45{fill:url(#SVGID_31_);}
	.st46{fill:url(#SVGID_32_);}
	.st47{fill:url(#SVGID_33_);}
	.st48{fill:url(#SVGID_34_);}
	.st49{fill:url(#SVGID_35_);}
	.st50{fill:none;stroke:#D0D2D3;stroke-width:0.4462;stroke-miterlimit:10;}
	.st51{fill:none;stroke:#D0D2D3;stroke-width:0.4808;stroke-miterlimit:10;}
	.st52{fill:none;stroke:#D0D2D3;stroke-width:0.4291;stroke-miterlimit:10;}
	.st53{fill:url(#SVGID_36_);}
	.st54{fill:url(#SVGID_37_);}
	.st55{fill:url(#SVGID_38_);}
	.st56{fill:url(#SVGID_39_);}
	.st57{fill:url(#SVGID_40_);}
	.st58{fill:url(#SVGID_41_);}
	.st59{fill:url(#SVGID_42_);}
</style>
<g id="Layer_2">
</g>
<g id="Layer_3">
	<g>
		<g>
			<g>
				<path class="st1" d="M123.59,78.71c0-3.77,0.68-7.19,2.03-10.26c1.35-3.07,3.19-5.7,5.5-7.88c2.31-2.18,5.06-3.87,8.23-5.06
					c3.17-1.19,6.54-1.78,10.11-1.78c3.57,0,6.94,0.59,10.11,1.78c3.17,1.19,5.91,2.87,8.23,5.06c2.31,2.18,4.15,4.81,5.5,7.88
					c1.35,3.07,2.03,6.49,2.03,10.26c0,3.77-0.68,7.19-2.03,10.26c-1.36,3.07-3.19,5.7-5.5,7.88c-2.31,2.18-5.06,3.87-8.23,5.06
					c-3.17,1.19-6.54,1.78-10.11,1.78c-3.57,0-6.94-0.59-10.11-1.78c-3.17-1.19-5.92-2.87-8.23-5.06c-2.31-2.18-4.15-4.81-5.5-7.88
					C124.27,85.89,123.59,82.47,123.59,78.71z M135.49,78.71c0,1.85,0.31,3.64,0.94,5.35c0.63,1.72,1.55,3.24,2.78,4.56
					c1.22,1.32,2.69,2.38,4.41,3.17c1.72,0.79,3.67,1.19,5.85,1.19c2.18,0,4.13-0.4,5.85-1.19c1.72-0.79,3.19-1.85,4.41-3.17
					c1.22-1.32,2.15-2.84,2.78-4.56c0.63-1.72,0.94-3.5,0.94-5.35c0-1.85-0.31-3.63-0.94-5.35c-0.63-1.72-1.55-3.24-2.78-4.56
					c-1.22-1.32-2.69-2.38-4.41-3.17c-1.72-0.79-3.67-1.19-5.85-1.19c-2.18,0-4.13,0.4-5.85,1.19c-1.72,0.79-3.19,1.85-4.41,3.17
					c-1.22,1.32-2.15,2.84-2.78,4.56C135.8,75.07,135.49,76.86,135.49,78.71z"/>
				<path class="st1" d="M182.67,54.92h11.3v7.63h0.2c1.12-2.38,2.84-4.44,5.15-6.2c2.31-1.75,5.45-2.63,9.42-2.63
					c3.17,0,5.86,0.53,8.08,1.59c2.21,1.06,4.01,2.45,5.4,4.16c1.39,1.72,2.38,3.7,2.97,5.95c0.59,2.25,0.89,4.59,0.89,7.04v30.04
					h-11.9V78.41c0-1.32-0.07-2.79-0.2-4.41c-0.13-1.62-0.48-3.14-1.04-4.56c-0.56-1.42-1.44-2.61-2.63-3.57
					c-1.19-0.96-2.81-1.44-4.86-1.44c-1.98,0-3.65,0.33-5.01,0.99c-1.36,0.66-2.48,1.55-3.37,2.68c-0.89,1.12-1.54,2.41-1.93,3.87
					c-0.4,1.45-0.6,2.97-0.6,4.56v25.97h-11.9V54.92z"/>
				<path class="st1" d="M245.32,82.87c0.4,3.57,1.78,6.34,4.16,8.33c2.38,1.98,5.25,2.97,8.62,2.97c2.97,0,5.47-0.61,7.48-1.83
					c2.02-1.22,3.78-2.76,5.3-4.61l8.52,6.44c-2.78,3.44-5.88,5.88-9.32,7.34c-3.44,1.45-7.04,2.18-10.8,2.18
					c-3.57,0-6.94-0.59-10.11-1.78c-3.17-1.19-5.92-2.87-8.23-5.06c-2.31-2.18-4.15-4.81-5.5-7.88c-1.36-3.07-2.03-6.49-2.03-10.26
					c0-3.77,0.68-7.19,2.03-10.26c1.35-3.07,3.19-5.7,5.5-7.88c2.31-2.18,5.06-3.87,8.23-5.06c3.17-1.19,6.54-1.78,10.11-1.78
					c3.3,0,6.33,0.58,9.07,1.73c2.74,1.16,5.09,2.83,7.04,5.01c1.95,2.18,3.47,4.87,4.56,8.08c1.09,3.21,1.64,6.89,1.64,11.05v3.27
					H245.32z M269.7,73.95c-0.07-3.5-1.16-6.26-3.27-8.28c-2.12-2.02-5.06-3.02-8.82-3.02c-3.57,0-6.39,1.03-8.48,3.07
					c-2.08,2.05-3.35,4.79-3.82,8.23H269.7z"/>
				<path class="st1" d="M328.09,95.36h-0.2c-1.72,2.91-4.03,5.02-6.94,6.34c-2.91,1.32-6.05,1.98-9.42,1.98
					c-3.7,0-6.99-0.64-9.86-1.93c-2.87-1.29-5.34-3.06-7.38-5.3c-2.05-2.25-3.6-4.89-4.66-7.93c-1.06-3.04-1.59-6.31-1.59-9.81
					c0-3.5,0.56-6.77,1.69-9.81c1.12-3.04,2.69-5.68,4.71-7.93c2.01-2.25,4.44-4.01,7.29-5.3c2.84-1.29,5.95-1.93,9.32-1.93
					c2.25,0,4.23,0.23,5.95,0.69c1.72,0.46,3.24,1.06,4.56,1.78c1.32,0.73,2.44,1.5,3.37,2.33c0.92,0.83,1.69,1.64,2.28,2.43h0.3
					V29.04h11.9v73.46h-11.3V95.36z M299.93,78.71c0,1.85,0.31,3.64,0.94,5.35c0.63,1.72,1.55,3.24,2.78,4.56
					c1.22,1.32,2.69,2.38,4.41,3.17c1.72,0.79,3.67,1.19,5.85,1.19c2.18,0,4.13-0.4,5.85-1.19c1.72-0.79,3.19-1.85,4.41-3.17
					c1.22-1.32,2.15-2.84,2.78-4.56c0.63-1.72,0.94-3.5,0.94-5.35c0-1.85-0.31-3.63-0.94-5.35c-0.63-1.72-1.55-3.24-2.78-4.56
					c-1.22-1.32-2.69-2.38-4.41-3.17c-1.72-0.79-3.67-1.19-5.85-1.19c-2.18,0-4.13,0.4-5.85,1.19c-1.72,0.79-3.19,1.85-4.41,3.17
					c-1.22,1.32-2.15,2.84-2.78,4.56C300.25,75.07,299.93,76.86,299.93,78.71z"/>
				<path class="st1" d="M358.22,82.87c0.4,3.57,1.78,6.34,4.16,8.33c2.38,1.98,5.25,2.97,8.62,2.97c2.97,0,5.47-0.61,7.48-1.83
					c2.02-1.22,3.78-2.76,5.3-4.61l8.52,6.44c-2.78,3.44-5.88,5.88-9.32,7.34c-3.44,1.45-7.04,2.18-10.8,2.18
					c-3.57,0-6.94-0.59-10.11-1.78c-3.17-1.19-5.92-2.87-8.23-5.06c-2.31-2.18-4.15-4.81-5.5-7.88c-1.36-3.07-2.03-6.49-2.03-10.26
					c0-3.77,0.68-7.19,2.03-10.26c1.35-3.07,3.19-5.7,5.5-7.88c2.31-2.18,5.06-3.87,8.23-5.06c3.17-1.19,6.54-1.78,10.11-1.78
					c3.3,0,6.33,0.58,9.07,1.73c2.74,1.16,5.09,2.83,7.04,5.01c1.95,2.18,3.47,4.87,4.56,8.08c1.09,3.21,1.64,6.89,1.64,11.05v3.27
					H358.22z M382.6,73.95c-0.07-3.5-1.16-6.26-3.27-8.28c-2.12-2.02-5.06-3.02-8.82-3.02c-3.57,0-6.39,1.03-8.48,3.07
					c-2.08,2.05-3.35,4.79-3.82,8.23H382.6z"/>
				<path class="st1" d="M427.9,68.1c-2.31-3.24-5.42-4.86-9.32-4.86c-1.59,0-3.14,0.4-4.66,1.19c-1.52,0.79-2.28,2.08-2.28,3.87
					c0,1.45,0.63,2.51,1.88,3.17c1.25,0.66,2.84,1.22,4.76,1.69c1.92,0.46,3.98,0.94,6.2,1.44c2.21,0.5,4.28,1.26,6.2,2.28
					c1.92,1.03,3.5,2.43,4.76,4.21c1.25,1.78,1.88,4.23,1.88,7.34c0,2.84-0.61,5.24-1.83,7.19c-1.22,1.95-2.81,3.52-4.76,4.71
					c-1.95,1.19-4.15,2.05-6.59,2.58c-2.45,0.53-4.89,0.79-7.34,0.79c-3.7,0-7.1-0.53-10.21-1.59c-3.11-1.06-5.88-2.97-8.33-5.75
					l7.93-7.43c1.52,1.72,3.15,3.12,4.91,4.21c1.75,1.09,3.88,1.64,6.39,1.64c0.86,0,1.75-0.1,2.68-0.3
					c0.92-0.2,1.78-0.53,2.58-0.99c0.79-0.46,1.44-1.04,1.93-1.73c0.5-0.69,0.74-1.5,0.74-2.43c0-1.65-0.63-2.87-1.88-3.67
					c-1.26-0.79-2.84-1.44-4.76-1.93c-1.92-0.5-3.98-0.96-6.2-1.39c-2.21-0.43-4.28-1.12-6.2-2.08c-1.92-0.96-3.5-2.3-4.76-4.01
					c-1.26-1.72-1.88-4.1-1.88-7.14c0-2.64,0.55-4.94,1.64-6.89c1.09-1.95,2.53-3.55,4.31-4.81c1.78-1.25,3.83-2.18,6.15-2.78
					c2.31-0.59,4.66-0.89,7.04-0.89c3.17,0,6.31,0.55,9.42,1.64c3.11,1.09,5.62,2.96,7.53,5.6L427.9,68.1z"/>
				<path class="st1" d="M443.47,29.04h11.9v45.61l18.34-19.73h15.27l-20.42,21.61l21.71,25.97h-15.76l-18.93-24.29h-0.2v24.29
					h-11.9V29.04z"/>
			</g>
		</g>
		<g>
			<linearGradient id="SVGID_1_" gradientUnits="userSpaceOnUse" x1="64.1877" y1="-45.4814" x2="64.1877" y2="139.6196">
				<stop  offset="0" style="stop-color:#BE5DDE"/>
				<stop  offset="0.8624" style="stop-color:#48398F"/>
			</linearGradient>
			<path class="st5" d="M50.29,63.79l-0.36-5.74h28.51l-0.36,5.74H50.29z M79.02,48.83l1.26-20.3c-10.32-3.79-21.85-3.79-32.18,0
				l1.26,20.3L79.02,48.83z M81.37,69.6h-0.55H47.56h-0.55c-0.7,0-1.28,0.68-1.28,1.52v5.58c0,1,0.81,1.81,1.81,1.81h33.21
				c1.04,0,1.89-0.85,1.89-1.89v-5.51C82.64,70.29,82.07,69.6,81.37,69.6z"/>
			<g>
				<linearGradient id="SVGID_2_" gradientUnits="userSpaceOnUse" x1="64.1876" y1="-3.2021" x2="64.1876" y2="146.0825">
					<stop  offset="0.2674" style="stop-color:#E294FF"/>
					<stop  offset="0.3593" style="stop-color:#D38EFC"/>
					<stop  offset="0.5349" style="stop-color:#AD7DF5"/>
					<stop  offset="0.7365" style="stop-color:#7A67EB"/>
				</linearGradient>
				<path class="st6" d="M106,48.83H84.85l1.36-22.06c0.08-1.24-0.64-2.38-1.78-2.86c-12.77-5.35-27.44-5.38-40.25-0.1l-0.23,0.09
					c-1.15,0.47-1.87,1.63-1.79,2.87l1.37,22.06H22.38c-1.38,0-2.5,1.12-2.5,2.5v1.09c0,1.38,1.12,2.5,2.5,2.5l2.03,0v47.57h6.09
					V56.2c0-0.7,0.5-1.28,1.12-1.28h65.1c0.63,0,1.15,0.59,1.15,1.3v46.27h6.09V54.93l2.03,0c1.38,0,2.5-1.12,2.5-2.5v-1.09
					C108.5,49.95,107.38,48.83,106,48.83z M79.02,48.83H49.36l-1.26-20.3c10.33-3.79,21.85-3.79,32.18,0L79.02,48.83z M83.88,64.28
					l0.39-6.23h-5.82l-0.36,5.74h-27.8l-0.36-5.74h-5.82l0.39,6.23c-2.67,1.05-4.58,3.72-4.58,6.85v8.05c0,2.85,2.31,5.16,5.16,5.16
					h16.29v3.59l-15.52,8.25c-1.73,0.87-2.44,2.97-1.57,4.71l0.53,1.06c0.25,0.51,0.87,0.71,1.37,0.46l15.19-8.08v6.25
					c0,1.07,0.87,1.94,1.94,1.94h1.79c1.1,0,1.99-0.89,1.99-1.99v-6.19l15.2,8.08c0.5,0.25,1.11,0.05,1.36-0.45l0.53-1.06
					c0.87-1.73,0.16-3.84-1.57-4.7l-15.53-8.25v-3.58h16.61c2.63,0,4.77-2.14,4.77-4.77v-8.44C88.46,68,86.55,65.33,83.88,64.28z
					 M82.64,76.67c0,1.02-0.83,1.85-1.85,1.85H47.57c-1.01,0-1.84-0.82-1.84-1.83v-5.56c0-0.84,0.57-1.52,1.28-1.52h0.55h33.26h0.55
					c0.7,0,1.28,0.68,1.28,1.52V76.67z"/>
				<path class="st7" d="M50.29,63.79l-0.36-5.74h28.51l-0.36,5.74H50.29z M79.02,48.83l1.26-20.3c-10.32-3.79-21.85-3.79-32.18,0
					l1.26,20.3L79.02,48.83z M81.37,69.6h-0.55H47.56h-0.55c-0.7,0-1.28,0.68-1.28,1.52v5.58c0,1,0.81,1.81,1.81,1.81h33.21
					c1.04,0,1.89-0.85,1.89-1.89v-5.51C82.64,70.29,82.07,69.6,81.37,69.6z"/>
			</g>
		</g>
	</g>
</g>
</svg>
